<svg width="1581" height="240" viewBox="0 0 1581 240" fill="none" xmlns="http://www.w3.org/2000/svg">
<rect x="719" y="192" width="191" height="48" fill="black"/>
<rect x="862.363" width="47.9091" height="47.9091" fill="black"/>
<rect x="671" width="48" height="192" fill="black"/>
<rect x="862.363" y="95.8184" width="47.9091" height="47.9091" fill="black"/>
<rect x="814.454" y="47.9092" width="47.9091" height="47.9091" fill="black"/>
<rect x="766.546" width="47.9091" height="47.9091" fill="black"/>
<rect x="335" y="48" width="48" height="144" fill="black"/>
<rect x="48" width="192" height="48" fill="black"/>
<rect x="1198" width="48" height="192" fill="black"/>
<rect x="527" y="48" width="48" height="144" fill="black"/>
<rect x="1006" width="48" height="192" fill="black"/>
<rect x="431.182" y="95.8184" width="47.9091" height="47.9091" fill="black"/>
<rect y="47.9092" width="47.9091" height="47.9091" fill="black"/>
<rect x="48" y="96" width="144" height="48" fill="black"/>
<rect x="1054" y="191.637" width="47.9091" height="47.9091" fill="black"/>
<path fill-rule="evenodd" clip-rule="evenodd" d="M1389 0H1341V48V240H1389V48H1533V0H1389Z" fill="black"/>
<rect x="1533" y="48" width="48" height="96" fill="black"/>
<rect x="1149.82" y="191.637" width="47.9091" height="47.9091" fill="black"/>
<rect x="383" width="144" height="48" fill="black"/>
<rect x="1437" y="144" width="96" height="48" fill="black"/>
<rect y="192" width="192" height="48" fill="black"/>
<rect x="1102" y="48" width="48" height="144" fill="black"/>
<rect x="1533.09" y="191.637" width="47.9091" height="47.9091" fill="black"/>
<rect x="191.637" y="143.728" width="47.9091" height="47.9091" fill="black"/>
<rect x="383" y="192" width="144" height="48" fill="black"/>
</svg>
